<?xml version="1.0" encoding="utf-8"?>
<!-- Generator: Adobe Illustrator 16.0.0, SVG Export Plug-In . SVG Version: 6.00 Build 0)  -->
<!DOCTYPE svg PUBLIC "-//W3C//DTD SVG 1.1//EN" "http://www.w3.org/Graphics/SVG/1.1/DTD/svg11.dtd">
<svg version="1.1" id="Layer_1" xmlns="http://www.w3.org/2000/svg" xmlns:xlink="http://www.w3.org/1999/xlink" x="0px" y="0px"
	 width="900px" height="900px" viewBox="0 0 900 900" enable-background="new 0 0 900 900" xml:space="preserve">
<path d="M450,0C201.472,0,0,201.472,0,450s201.472,450,450,450s450-201.472,450-450S698.528,0,450,0z M338.253,738.355h-177v-14h177
	V738.355z M338.253,649.355h-177v-49h177V649.355z M728.253,738.355h-178v-14h178V738.355z M728.253,649.355h-178v-49h178V649.355z
	 M728.253,550.355h-178v-45h-212v45h-177v-49h567V550.355z M728.253,475.355h-567v-313h177v225h212v-225h178V475.355z" fill="#fff"/>
</svg>
