<?xml version="1.0" encoding="utf-8"?>
<!-- Generator: Adobe Illustrator 16.0.0, SVG Export Plug-In . SVG Version: 6.00 Build 0)  -->
<!DOCTYPE svg PUBLIC "-//W3C//DTD SVG 1.1//EN" "http://www.w3.org/Graphics/SVG/1.1/DTD/svg11.dtd">
<svg version="1.1" id="Layer_1" xmlns="http://www.w3.org/2000/svg" xmlns:xlink="http://www.w3.org/1999/xlink" x="0px" y="0px"
	 width="287px" height="42px" viewBox="0 0 287 42" enable-background="new 0 0 287 42" xml:space="preserve">
<g>
	<path d="M40.852,22.522H0.035V-0.013h12.762v16.207H28.02V-0.013h12.832V22.522z M40.852,27.901H28.02v-3.199H12.797v3.199H0.035
		v-3.551h40.816V27.901z M12.797,35.073H0.035v-3.551h12.762V35.073z M12.797,41.437H0.035v-0.984h12.762V41.437z M40.852,35.073
		H28.02v-3.551h12.832V35.073z M40.852,41.437H28.02v-0.984h12.832V41.437z" fill="white"/>
	<path d="M89.859,20.94c0,0.821-0.035,1.665-0.105,2.531h-12.48c0.093-0.891,0.141-1.793,0.141-2.707
		c0-4.312-0.914-7.641-2.742-9.984c-1.477-1.898-3.891-2.848-7.242-2.848c-6.727,0-10.09,4.336-10.09,13.008
		c0,0.844,0.047,1.688,0.141,2.531H45.07c-0.07-0.844-0.105-1.675-0.105-2.496c0-6.703,1.98-11.877,5.941-15.521
		c3.96-3.644,9.609-5.467,16.945-5.467c7.875,0,13.711,2.285,17.508,6.855C88.359,10.476,89.859,15.175,89.859,20.94z
		 M58.816,28.569H46.125c-0.375-1.077-0.656-2.215-0.844-3.41h12.445C58.008,26.519,58.371,27.655,58.816,28.569z M87.117,31.979
		c-0.773,1.289-1.665,2.438-2.672,3.445H50.309c-1.008-1.031-1.887-2.18-2.637-3.445H61.84c1.5,0.984,3.352,1.477,5.555,1.477
		c2.18,0,4.02-0.492,5.52-1.477H87.117z M74.918,40.487c-2.414,0.633-4.969,0.949-7.664,0.949c-2.695,0-5.238-0.316-7.629-0.949
		H74.918z M89.543,25.159c-0.211,1.195-0.492,2.333-0.844,3.41H75.902c0.515-1.007,0.891-2.145,1.125-3.41H89.543z" fill="white"/>
	<path d="M131.695,11.026c0,3.563-1.383,6.129-4.148,7.699c-1.828,1.032-4.148,1.735-6.961,2.109v0.246
		c2.859,0.07,5.015,0.527,6.469,1.371H93.41V-0.013h21.094c3.633,0,6.105,0.094,7.418,0.281c2.859,0.375,5.063,1.278,6.609,2.707
		C130.641,4.921,131.695,7.604,131.695,11.026z M130.359,27.866h-13.254c-0.633-1.734-2.531-2.602-5.695-2.602h-5.309v2.602H93.41
		v-3.621h35.578C129.551,25.112,130.008,26.319,130.359,27.866z M106.102,35.038H93.41v-3.551h12.691V35.038z M106.102,41.437H93.41
		v-1.02h12.691V41.437z M119.426,12.749c0-2.25-0.973-3.738-2.918-4.465c-1.125-0.422-3.012-0.633-5.66-0.633h-4.746v10.16h4.746
		c2.719,0,4.465-0.117,5.238-0.352C118.313,16.804,119.426,15.233,119.426,12.749z M131.555,35.038h-13.359l-0.316-2.89
		c-0.023-0.162-0.059-0.383-0.105-0.661h13.184C131.074,32.23,131.273,33.414,131.555,35.038z M133.102,41.437h-13.711
		c-0.094-0.294-0.188-0.634-0.281-1.02h13.641C132.867,40.825,132.984,41.165,133.102,41.437z" fill="white" />
	<path d="M149.449,22.276h-13.008V-0.013h13.008V22.276z M149.449,27.655h-13.008v-3.551h13.008V27.655z M149.449,34.827h-13.008
		v-3.551h13.008V34.827z M149.449,41.437h-13.008v-1.266h13.008V41.437z" fill="white"/>
	<path d="M192.516,35.003h-39.023v-2.707l0.879-0.914h15.992l-1.915,2.039h24.067V35.003z M192.516,41.437h-39.023v-1.09h39.023
		V41.437z M192.023,8.887L179.01,22.382h-16.205l13.506-14.379h-21.553v-8.016h37.266V8.887z M177.326,24.175l-3.497,3.621h-16.083
		l3.375-3.621H177.326z" fill="white"/>
	<path d="M238.605,20.94c0,0.821-0.035,1.665-0.105,2.531h-12.48c0.094-0.891,0.141-1.793,0.141-2.707
		c0-4.312-0.914-7.641-2.742-9.984c-1.477-1.898-3.891-2.848-7.242-2.848c-6.727,0-10.09,4.336-10.09,13.008
		c0,0.844,0.047,1.688,0.141,2.531h-12.41c-0.07-0.844-0.105-1.675-0.105-2.496c0-6.703,1.98-11.877,5.941-15.521
		c3.961-3.644,9.609-5.467,16.945-5.467c7.875,0,13.711,2.285,17.508,6.855C237.105,10.476,238.605,15.175,238.605,20.94z
		 M207.563,28.569h-12.691c-0.375-1.077-0.656-2.215-0.844-3.41h12.445C206.754,26.519,207.117,27.655,207.563,28.569z
		 M235.863,31.979c-0.773,1.289-1.664,2.438-2.672,3.445h-34.137c-1.008-1.031-1.887-2.18-2.637-3.445h14.168
		c1.5,0.984,3.352,1.477,5.555,1.477c2.18,0,4.02-0.492,5.52-1.477H235.863z M223.664,40.487c-2.414,0.633-4.969,0.949-7.664,0.949
		s-5.238-0.316-7.629-0.949H223.664z M238.289,25.159c-0.211,1.195-0.492,2.333-0.844,3.41h-12.797
		c0.516-1.007,0.891-2.145,1.125-3.41H238.289z" fill="white"/>
	<path d="M270.809,22.522h-11.215l-6.469-13.289l0.035,13.289h-11.039V-0.013h17.438L270.809,22.522z M253.195,27.901h-11.074
		v-3.586h11.039L253.195,27.901z M253.23,35.073h-11.109v-3.586h11.074L253.23,35.073z M253.23,41.472h-11.109v-0.984h11.109V41.472
		z M273.48,27.901h-11.25l-1.758-3.586h11.215L273.48,27.901z M285.891,35.073h-20.145l-1.758-3.586h21.902V35.073z M285.891,41.472
		H268.84l-0.492-0.984h17.543V41.472z M285.891,22.522h-10.934l-0.105-22.535h11.039V22.522z M285.891,27.901h-10.934v-3.586h10.934
		V27.901z" fill="white"/>
</g>
</svg>
